<?xml version="1.0" encoding="utf-8"?>
<!DOCTYPE svg PUBLIC "-//W3C//DTD SVG 1.1//EN" "http://www.w3.org/Graphics/SVG/1.1/DTD/svg11.dtd">
<svg version="1.1" id="Layer_1" xmlns="http://www.w3.org/2000/svg" xmlns:xlink="http://www.w3.org/1999/xlink" x="0px" y="0px"
	 viewBox="0 0 1920 1440" enable-background="new 0 0 1920 1440" xml:space="preserve">
<g>
	<path d="M208.1591,404.0365c9.8263,0,19.687,0.5126,29.4693-0.1432c9.9203-0.665,17.5874,3.5321,25.1528,8.9657
		c14.179,10.1836,25.643,23.1722,36.7239,36.3634c14.5931,17.3722,29.9708,34.0024,45.7556,50.2343
		c21.5207,22.13,39.7125,46.4466,53.814,73.9943c10.5549,20.6193,23.1482,40.1207,37.2639,58.5021
		c7.4942,9.759,15.8591,18.9312,26.8031,25.1786c13.1158,7.4872,27.045,3.4324,34.749-9.6337
		c9.7608-16.5544,14.8819-34.7712,18.9361-53.2332c5.2284-23.8096,17.0232-43.9813,32.5254-62.1977
		c24.835-29.183,56.7238-48.5249,91.1848-64.0736c18.6818-8.4292,37.8573-15.6295,57.3541-21.9321
		c10.1796-3.2906,20.0439-7.2616,29.344-12.5234c21.3487-12.0788,25.3073-30.3164,10.9542-50.1621
		c-5.8372-8.0709-9.6172-16.9957-11.5722-26.7328c-1.4763-7.3528-0.0642-14.2605,3.4844-20.7118
		c4.7183-8.5777,11.4572-15.5126,18.6214-22.0529c31.9625-29.1791,69.8998-47.5644,110.1947-62.1486
		c17.6361-6.3832,35.9024-9.8175,53.8604-14.6595c6.8176-1.8383,12.1376-5.2558,15.9589-11.1079
		c1.57-2.4044,3.5422-4.3777,5.9169-6.0087c17.7596-12.1968,24.189-30.5955,27.1051-50.6457
		c0.9364-6.4377-4.6875-14.0224-10.7867-15.8052c-6.3426-1.8539-10.9858,1.4072-14.6867,6.1131
		c-5.0079,6.368-10.1511,12.4973-18.772,13.8325c-3.111,0.4818-6.2933,0.6343-9.4468,0.6795
		c-4.8273,0.0692-9.6725-0.2027-14.327,1.4575c-2.5385,0.9054-3.0601-0.2283-2.4059-2.4031
		c1.1658-3.876,3.5406-6.7357,7.3128-8.3528c3.3633-1.4417,6.7479-2.8363,10.0816-4.3436c7.6191-3.4448,8.9446-8.0884,3.455-14.4604
		c-4.3326-5.0291-9.3005-9.5423-14.2278-14.0186c-4.7141-4.2825-7.854-9.4134-9.5915-15.4587
		c-1.5461-5.3792-1.7134-10.7609-0.4156-16.2803c5.0093-21.3049,30.8418-38.1333,51.2995-33.3112
		c5.4511,1.2849,10.3875,3.674,14.6307,7.2701c2.5549,2.1653,3.7725,1.1704,4.4811-1.3761c1.0245-3.6814,1.928-7.405,2.6795-11.1514
		c0.7764-3.8712,2.5646-6.869,6.4098-8.2357c16.2028-5.759,32.1913-5.0983,47.3583,2.9713
		c9.4976,5.0532,14.7444,13.3876,13.9527,24.5999c-0.2904,4.114,1.3837,3.7672,3.9449,2.2184
		c4.4081-2.6654,8.7565-5.431,13.1923-8.0491c9.7224-5.7384,19.6743-6.6453,29.1001,0.1885
		c10.0594,7.2931,15.0717,17.1104,12.5768,29.9102c-2.674,13.7187-10.2802,24.7657-18.9663,35.2348
		c-1.8059,2.1765-3.7997,4.19-5.0884,6.7699c-1.8823,3.7681-0.9204,6.4898,2.9808,7.9423c2.9551,1.1003,6.03,1.8781,9.0504,2.8035
		c4.4391,1.3602,6.5194,4.4783,6.3676,9.0013c-0.1882,5.6027-2.5101,10.378-6.6508,14.0531
		c-4.1932,3.7216-10.5764,2.7153-16.1984-2.4548c-9.0321-8.3064-16.4769-17.9243-22.0691-28.8206
		c-2.127-4.144-4.0837-4.3651-7.5322-1.8733c-5.5825,4.0339-10.5984,8.5865-14.4128,14.359
		c-4.5918,6.9489-3.6474,12.1872,3.3431,16.4301c3.7964,2.3043,6.8583,5.1945,9.5236,8.6684
		c9.5198,12.4079,19.697,24.4134,22.8793,40.4315c0.767,3.8596,4.202,5.4287,7.2853,7.0404
		c9.2614,4.8407,19.3217,7.4289,29.5052,9.0062c30.3362,4.6989,57.7874,16.4682,83.635,32.617
		c18.2134,11.3792,37.3872,21.2303,54.549,34.279c9.2362,7.0227,17.2649,15.0889,22.6796,25.5739
		c6.6224,12.8237,6.6469,25.1537-1.7903,37.2071c-4.2983,6.1407-8.5681,12.3091-12.6178,18.6145
		c-9.7084,15.1163-6.7656,29.0769,8.1625,39.1826c9.4745,6.4139,19.9386,10.6389,30.8817,13.7967
		c19.1733,5.5326,38.6382,10.1415,56.7786,18.849c20.8838,10.0243,40.9338,21.4898,60.4075,34.0074
		c7.1422,4.5909,14.4679,8.8963,21.61,13.4874c3.7228,2.3931,4.3075,0.8453,4.3405-2.7135
		c0.0625-6.7659-1.0571-13.3635-3.4259-19.5903c-10.5087-27.6236-4.6146-54.2337,6.88-79.4242
		c18.311-40.1295,51.0687-66.1795,89.5634-85.705c13.4248-6.8095,27.672-11.4218,42.261-15.0364
		c4.3645-1.0814,8.6554-2.4362,12.6035-4.6863c5.7108-3.2548,10.0897-7.4034,11.3121-14.3451
		c0.9648-5.4795,3.592-10.4144,7.033-14.746c5.5924-7.0401,12.144-6.9317,17.8511-0.0067
		c2.8044,3.4028,4.8027,7.3262,5.9346,11.4702c1.4606,5.3481,4.8959,7.8864,9.9889,7.9526
		c6.4321,0.0836,9.1515,3.5062,10.0819,9.3275c0.312,1.9515,1.0555,3.8561,1.7704,5.7173c2.5129,6.5417,6.0295,8.8318,12.759,7.1373
		c8.7764-2.2099,16.5065,0.1182,23.8678,4.416c5.7491,3.3567,11.2396,7.1449,16.2633,11.5727
		c11.13,9.8102,23.1245,18.4855,35.0959,27.2377c34.0858,24.9197,54.285,58.7484,62.9537,99.8326
		c11.8746,56.2783,5.9744,111.629-8.5983,166.5006c-2.1729,8.1814-5.2335,16.166-8.3868,24.04
		c-6.8068,16.9971-13.9438,33.8554-20.0858,51.1213c-3.5255,9.9108-8.4728,19.1799-14.7227,27.7096
		c-4.0234,5.4912-8.912,9.7676-15.4911,11.9669c-4.3516,1.4547-8.0258,4.0189-10.9777,7.5519
		c-1.922,2.3005-4.186,4.4313-5.6049,7.0176c-12.1217,22.096-30.5143,38.9852-47.2041,57.2975
		c-9.0885,9.9722-18.4108,19.7859-25.8577,31.1036c-9.8417,14.9573-14.988,30.9875-11.382,49.2132
		c1.7814,9.0025-2.1744,12.8312-11.2568,10.837c-13.4407-2.9511-23.3534-10.9301-29.4487-23.3414
		c-2.0826-4.2404-1.3148-8.8109-0.5732-13.2675c0.6276-3.7722,1.6846-7.4764,1.5575-11.3577
		c-0.2197-6.7137-2.2684-9.1373-8.91-9.5191c-9.5026-0.5463-18.5386,2.0493-27.2412,5.378
		c-20.3828,7.7966-37.4946,20.7262-53.4269,35.3145c-8.3628,7.6575-16.1112,15.9265-23.2001,24.792
		c-1.7683,2.2114-3.5199,4.4427-5.1571,6.7514c-9.1376,12.8858-7.9041,19.6639,5.1335,28.6436
		c4.116,2.835,8.161,5.7752,12.3196,8.5454c10.9174,7.2728,14.5923,17.8378,13.2051,30.2812
		c-1.6141,14.478-8.1989,26.605-19.0004,36.3813c-12.0803,10.9339-33.4017,11.3712-48.4302,3.1859
		c-3.7815-2.0596-7.2766-4.646-10.8962-7.0011c-11.9681-7.7872-16.8-19.7142-19.3851-33.0491
		c-1.5822-8.1617-3.0651-16.3945-6.9344-23.9013c-3.3298-6.4601-4.8853-6.7583-10.0509-1.4547
		c-6.0109,6.1714-10.2457,13.5947-13.3947,21.515c-7.8732,19.8022-18.5472,37.9771-31.2021,55.0388
		c-11.7128,15.7915-21.3069,32.9146-31.5753,49.6252c-20.2686,32.9843-44.0287,63.4136-69.2096,92.7438
		c-5.8143,6.7723-10.5762,14.061-14.2743,22.1569c-2.2787,4.988-4.8838,9.8422-7.5922,14.6146
		c-2.6927,4.7446-6.5298,8.3313-11.6499,10.5283c-5.972,2.5627-11.7991,5.4519-17.0729,9.2963
		c-6.2283,4.54-6.6492,11.318-0.12,15.0743c16.9191,9.7338,31.6418,22.8911,49.0155,31.7261
		c10.248,5.2114,17.807,12.6304,24.2019,21.7285c2.0114,2.8619,3.9475,5.7765,5.946,8.6476
		c3.7153,5.3372,7.6619,10.4714,12.132,15.2307c2.4788,2.6392,4.3892,2.1991,6.6552,0.0333
		c2.1975-2.1003,3.7743-4.6365,5.3785-7.1752c1.5986-2.5304,3.1006-5.1637,5.0084-7.4485
		c4.7001-5.6288,10.2831-6.2926,16.3625-2.2228c10.1465,6.7926,14.0205,17.5236,10.8506,31.3002
		c-3.0121,13.0905-9.8585,23.8783-20.3593,32.3575c-9.1217,7.3655-19.2739,8.3951-30.1787,5.2908
		c-5.6388-1.6051-11.1036-3.8313-15.968-7.0026c-16.467-10.7347-34.3629-11.4756-52.944-8.3062
		c-9.8417,1.6787-19.5188,4.2074-29.5087,5.1613c-9.4193,0.8994-18.6145,0.6765-27.5787-2.6893
		c-2.8018-1.0521-5.6575-1.9852-8.5367-2.8031c-10.9398-3.1077-19.5287,0.2502-26.2178,9.3521
		c-4.3127,5.8687-7.3553,12.7181-13.4829,17.2137c-15.1465,11.1119-32.0751,14.0995-50.2567,10.9734
		c-9.4375-1.6227-18.7992-2.1487-28.3337-0.861c-8.1399,1.0994-16.3855,1.0251-24.2265-1.7788
		c-10.0239-3.5845-20.2563-3.3386-30.6016-2.6083c-4.6487,0.3282-9.3196,0.5576-13.9769,0.5076
		c-11.6227-0.1248-21.4623-4.1782-28.7359-13.5938c-1.1198-1.4495-2.3945-2.7797-3.5051-4.2356
		c-7.5449-9.891-16.6785-15.6484-29.7789-12.1874c-3.8442,1.0157-7.9241,1.03-11.8849,0.0701
		c-8.6124-2.0869-16.877-0.6498-24.9442,2.5027c-6.4358,2.5153-13.019,3.7915-19.9794,3.6012
		c-26.8423-0.7339-53.6335,0.4417-80.4139,2.2482c-9.555,0.6447-18.9859-0.5409-27.8518-4.5111
		c-5.7678-2.5831-10.4652-6.3019-13.0721-12.3726c-3.8419-8.9467-5.3228-18.2428-4.0748-27.8368
		c1.2151-9.3416,7.3647-12.6984,16.1944-9.4731c5.4102,1.9761,9.6818,5.7035,14.2866,8.9041
		c5.6406,3.9203,9.9872,4.1404,15.4653-0.1511c6.4607-5.0613,11.9233-11.0759,16.5575-17.9047
		c6.5288-9.6208,12.414-19.8396,22.5098-26.4395c1.2454-0.8142,2.4409-1.9691,3.8147-2.2802
		c11.7094-2.6506,19.7946-10.557,27.5941-18.8517c4.3354-4.6107,8.3919-9.4836,12.7221-14.0995
		c3.4452-3.6725,3.8218-7.4281,1.392-11.8049c-2.3721-4.2729-5.2827-8.0757-8.7446-11.4868
		c-0.7112-0.7008-1.4138-1.4307-2.2156-2.0167c-30.4988-22.2924-52.0624-52.6051-74.2399-82.4103
		c-24.2676-32.614-48.418-65.3223-75.0375-96.1125c-30.3662-35.1239-63.9732-66.4987-103.9182-90.5966
		c-39.36-23.745-74.5018-52.6907-105.5317-86.5029c-50.8849-55.4474-86.1006-119.0332-98.5943-194.0223
		c-3.6467-21.888-8.4951-43.4855-16.282-64.2269c-25.8002-68.7222-70.2703-122.5042-131.5619-162.5915
		c-11.2367-7.3493-23.7452-11.9943-36.1527-16.8085c-7.2116-2.7982-13.8939-6.3836-19.837-11.3394
		c-1.8165-1.5147-3.4198-3.2033-4.3056-5.4228c-1.449-3.631-0.7616-6.2776,3.1092-8.139c8.5565-4.1145,17.7906-4.207,26.884-4.5983
		c10.6443-0.4581,21.3234-0.1071,31.9874-0.1071C208.159,403.4011,208.159,403.7188,208.1591,404.0365z M1471.2657,650.4817
		c-0.0228,10.7188-0.0319,18.5288-0.9,26.3466c-1.985,17.8768-3.8335,35.7722-5.4462,53.6862
		c-2.6484,29.4177-9.9863,57.3406-25.4054,82.8273c-5.2885,8.7413-9.5583,17.954-11.2379,28.118
		c-0.6182,3.7413-1.5151,8.6113,1.4375,10.9176c3.0913,2.4146,7.2245-0.4744,10.7147-1.9309
		c0.917-0.3827,1.7526-0.9572,2.6359-1.4241c14.9287-7.8919,27.9594-18.6254,41.9641-27.8938
		c10.057-6.6558,18.4191-14.1329,20.981-26.5033c0.5599-2.7035,2.5012-3.8965,5.0474-4.9028
		c13.1588-5.1999,26.2308-10.6201,39.3097-16.02c1.3572-0.5603,2.7207-1.3138,3.8087-2.2835
		c7.3953-6.5915,15.7208-11.8013,24.474-16.3055c14.9823-7.7096,29.6523-15.9721,42.9735-26.3026
		c25.4658-19.7487,45.6208-44.1229,61.7003-71.999c15.8826-27.535,27.1317-56.7532,32.1237-88.1888
		c6.3671-40.0967,1.8757-78.2574-20.3528-113.3819c-18.5958-29.3844-42.8727-51.1531-77.1248-60.3754
		c-13.8722-3.735-20.9534-0.5215-27.8799,12.1895c-3.7355,6.8553-7.3268,13.9058-12.8921,19.541
		c-10.6014,10.7347-24.2516,9.3124-32.6218-3.2337c-2.1581-3.2349-3.8524-6.8175-4.3022-10.5541
		c-0.556-4.6196-2.5135-4.9324-6.1624-3.4743c-18.1948,7.2709-29.8329,20.6174-36.0592,38.9209
		c-0.7909,2.325-0.723,4.9287-1.2323,7.3658c-0.8009,3.8318,1.1624,5.2309,4.5469,5.2578
		c6.6614,0.0528,13.3251,0.065,19.9849-0.0655c5.1514-0.1009,9.7898,1.0979,14.1791,3.9264
		c8.2617,5.3241,14.9681,12.2629,20.4921,20.1998c7.9069,11.3605,12.561,23.7115,10.1318,38.0532
		c-3.1757,18.7496-12.8505,33.6826-26.3037,46.518c-8.7815,8.378-19.4318,12.0762-31.4492,11.6182
		c-5.6432-0.2151-11.2621-1.0804-16.8907-1.6629c-11.202-1.1593-22.2295-4.5241-33.6725-2.6454
		c-1.4258,0.2341-3.3125-0.1785-3.6447,1.814c-0.3551,2.1286,1.2896,3.0153,3.0222,3.2225
		c3.3055,0.3954,3.6843,2.3896,3.7909,5.2439c0.2234,5.9904,1.0493,11.9399,3.0491,17.647
		C1469.5734,620.4961,1472.1274,636.6794,1471.2657,650.4817z"/>
</g>
</svg>
